<?xml version="1.0" encoding="UTF-8"?><svg id="_レイヤー_2" xmlns="http://www.w3.org/2000/svg" viewBox="0 0 80 80"><defs><style>.cls-1{fill:none;stroke:#803b2d;stroke-linecap:round;stroke-linejoin:round;stroke-width:1.2px;}.cls-2{fill:#fff;opacity:.02;stroke-width:0px;}</style></defs><g id="_レイヤー_1-2"><rect class="cls-2" width="1" height="1"/><circle class="cls-1" cx="40" cy="45.5" r="28.27"/><polygon class="cls-1" points="51.54 33.95 36.41 41.91 28.46 57.04 43.59 49.08 51.54 33.95"/><line class="cls-1" x1="36.41" y1="41.91" x2="43.59" y2="49.08"/><circle class="cls-1" cx="40" cy="10.26" r="4.03"/><line class="cls-1" x1="40" y1="14.29" x2="40" y2="17.23"/><line class="cls-1" x1="40" y1="19.87" x2="40" y2="22.41"/><line class="cls-1" x1="40" y1="68.4" x2="40" y2="70.94"/><line class="cls-1" x1="21.94" y1="27.35" x2="23.74" y2="29.15"/><line class="cls-1" x1="56.26" y1="61.66" x2="58.06" y2="63.46"/><line class="cls-1" x1="14.46" y1="45.41" x2="17.01" y2="45.41"/><line class="cls-1" x1="62.99" y1="45.41" x2="65.54" y2="45.41"/><line class="cls-1" x1="21.94" y1="63.46" x2="23.74" y2="61.66"/><line class="cls-1" x1="56.26" y1="29.15" x2="58.06" y2="27.35"/><rect class="cls-2" x="79" y="79" width="1" height="1"/></g></svg>