<?xml version="1.0" encoding="UTF-8"?><svg id="_レイヤー_2" xmlns="http://www.w3.org/2000/svg" viewBox="0 0 80 80"><defs><style>.cls-1,.cls-2{stroke-linejoin:round;}.cls-1,.cls-2,.cls-3{stroke-linecap:round;}.cls-1,.cls-2,.cls-3,.cls-4{fill:none;stroke:#803b2d;}.cls-2,.cls-3,.cls-4{stroke-width:1.2px;}.cls-3,.cls-4{stroke-miterlimit:10;}.cls-5{fill:#fff;opacity:.02;stroke-width:0px;}</style></defs><g id="_レイヤー_1-2"><rect class="cls-5" width="1" height="1"/><polyline class="cls-2" points="37.37 50.61 5.99 50.61 5.99 9.64"/><polyline class="cls-2" points="14.01 38.04 26.56 25.49 33.61 32.54 49.74 16.41"/><polyline class="cls-2" points="41.19 15.55 50.3 15.55 50.3 24.66"/><path class="cls-1" d="m56.73,33.28s2.71,1.47,5.37,1.24"/><path class="cls-4" d="m75.53,61.99l-.48,4.74c-.3,2.95-2.59,5.31-5.53,5.69l-1.34.17c-8.25,1.07-16.6,1.07-24.85,0l-1.34-.17c-2.94-.38-5.23-2.74-5.53-5.69l-.48-4.74c-.38-3.75,1.76-7.3,5.25-8.71l8.28-3.36c1.36-.45,2.28-1.72,2.28-3.15h0c0-.92-.36-1.83-1.06-2.43-1.95-1.68-3.2-4.32-3.2-7.29,0-5.09,3.68-9.22,8.22-9.22s8.22,4.13,8.22,9.22c0,2.97-1.25,5.61-3.2,7.29-.7.6-1.06,1.51-1.06,2.43h0c0,1.43.92,2.7,2.28,3.15l8.29,3.36c3.49,1.41,5.63,4.96,5.25,8.71Z"/><path class="cls-2" d="m59.15,30.73s-3.23,5.25-9.74,4.68"/><line class="cls-3" x1="50.71" y1="49.68" x2="55.71" y2="63.42"/><line class="cls-3" x1="60.8" y1="49.68" x2="55.8" y2="63.42"/><line class="cls-3" x1="52.49" y1="54.45" x2="59.02" y2="54.45"/><rect class="cls-5" x="79" y="79" width="1" height="1"/></g></svg>