<?xml version="1.0" encoding="UTF-8"?><svg id="_レイヤー_2" xmlns="http://www.w3.org/2000/svg" viewBox="0 0 30 30"><defs><style>.cls-1{stroke-width:0px;}.cls-1,.cls-2{fill:#803b2d;}.cls-2{font-family:YuGo-Medium-83pv-RKSJ-H, YuGothic;font-size:20px;font-weight:500;}</style></defs><g id="_レイヤー_1-2"><path class="cls-1" d="m26.19,1.2c1.44,0,2.61,1.17,2.61,2.61v22.37c0,1.44-1.17,2.61-2.61,2.61H3.81c-1.44,0-2.61-1.17-2.61-2.61V3.81c0-1.44,1.17-2.61,2.61-2.61h22.37m0-1.2H3.81C1.71,0,0,1.71,0,3.81v22.37c0,2.11,1.71,3.81,3.81,3.81h22.37c2.11,0,3.81-1.71,3.81-3.81V3.81c0-2.11-1.71-3.81-3.81-3.81h0Z"/><text class="cls-2" transform="translate(5.46 21.98)"><tspan x="0" y="0">あ</tspan></text></g></svg>