<?xml version="1.0" encoding="UTF-8"?><svg id="_レイヤー_2" xmlns="http://www.w3.org/2000/svg" viewBox="0 0 80 80"><defs><style>.cls-1,.cls-2{stroke-linecap:round;}.cls-1,.cls-2,.cls-3,.cls-4{fill:none;}.cls-1,.cls-2,.cls-3,.cls-4,.cls-5{stroke:#803b2d;stroke-width:1.2px;}.cls-1,.cls-3,.cls-5{stroke-linejoin:round;}.cls-2{stroke-linejoin:bevel;}.cls-4{stroke-miterlimit:10;}.cls-6{opacity:.02;stroke-width:0px;}.cls-6,.cls-5{fill:#fff;}</style></defs><g id="_レイヤー_1-2"><rect class="cls-6" width="1" height="1"/><path class="cls-4" d="m44.05,73.1c-7.42.22-14.86-.15-22.24-1.11l-1.96-.25c-4.28-.55-7.62-3.99-8.05-8.28l-.7-6.9c-.55-5.45,2.56-10.62,7.64-12.68l12.05-4.88c1.98-.65,3.32-2.5,3.32-4.58h0c0-1.34-.53-2.66-1.55-3.54-2.83-2.45-4.65-6.29-4.65-10.62,0-7.41,5.36-13.42,11.97-13.42s11.97,6.01,11.97,13.42c0,4.32-1.82,8.17-4.65,10.62-1.02.88-1.55,2.19-1.55,3.54h0c0,2.08,1.34,3.93,3.32,4.58l12.06,4.89c1.05.43,2.02.99,2.89,1.65"/><path class="cls-1" d="m42.64,11.07s-3.97,7.64-11.98,6.82"/><path class="cls-1" d="m47.37,13.43s-1.53,4.51-7.47,4.45"/><polygon class="cls-2" points="47.21 38.8 40.09 41.9 32.79 38.8 39.92 54.38 47.21 38.8"/><line class="cls-2" x1="30.87" y1="39.6" x2="29.68" y2="43.07"/><polyline class="cls-1" points="32.92 43.59 29 45.87 36.26 52.16"/><line class="cls-2" x1="49.13" y1="39.6" x2="50.32" y2="43.07"/><polyline class="cls-1" points="47.08 43.59 51 45.87 43.74 52.16"/><rect class="cls-3" x="47.19" y="52.32" width="27.81" height="20.83"/><line class="cls-3" x1="47.19" y1="61.26" x2="75" y2="61.26"/><rect class="cls-5" x="57.29" y="59.05" width="7.62" height="5.45"/><polyline class="cls-3" points="54.46 52.32 54.46 47.95 67.73 47.95 67.73 52.32"/><rect class="cls-6" x="79" y="79" width="1" height="1"/></g></svg>