<?xml version="1.0" encoding="UTF-8"?><svg id="_レイヤー_2" xmlns="http://www.w3.org/2000/svg" viewBox="0 0 80 80"><defs><style>.cls-1{stroke-linejoin:round;}.cls-1,.cls-2{stroke-linecap:round;}.cls-1,.cls-2,.cls-3{fill:none;stroke:#803b2d;stroke-width:1.2px;}.cls-2{stroke-linejoin:bevel;}.cls-3{stroke-miterlimit:10;}.cls-4{fill:#fff;opacity:.02;stroke-width:0px;}</style></defs><g id="_レイヤー_1-2"><rect class="cls-4" width="1" height="1"/><path class="cls-3" d="m68.78,56.56l-.69,6.89c-.43,4.3-3.77,7.73-8.05,8.28l-1.96.25c-12.01,1.56-24.16,1.56-36.17,0l-1.96-.25c-4.28-.55-7.62-3.99-8.05-8.28l-.7-6.9c-.55-5.45,2.56-10.62,7.64-12.68l12.05-4.88c1.98-.65,3.32-2.5,3.32-4.58h0c0-1.34-.53-2.66-1.55-3.54-2.83-2.45-4.65-6.29-4.65-10.62,0-7.41,5.36-13.42,11.97-13.42s11.97,6.01,11.97,13.42c0,4.32-1.82,8.17-4.65,10.62-1.02.88-1.55,2.19-1.55,3.54h0c0,2.08,1.34,3.93,3.32,4.58l12.06,4.89c5.08,2.06,8.2,7.22,7.65,12.68Z"/><path class="cls-1" d="m42.74,11.07s-3.97,7.64-11.98,6.82"/><path class="cls-1" d="m47.47,13.43s-1.53,4.51-7.47,4.45"/><polygon class="cls-2" points="47.31 38.8 40.2 41.9 32.9 38.8 40.02 54.38 47.31 38.8"/><line class="cls-2" x1="30.98" y1="39.6" x2="29.78" y2="43.07"/><polyline class="cls-1" points="33.03 43.59 29.11 45.87 36.37 52.16"/><line class="cls-2" x1="49.24" y1="39.6" x2="50.43" y2="43.07"/><polyline class="cls-1" points="47.18 43.59 51.1 45.87 43.84 52.16"/><rect class="cls-4" x="79" y="79" width="1" height="1"/></g></svg>