<?xml version="1.0" encoding="UTF-8"?><svg id="_レイヤー_2" xmlns="http://www.w3.org/2000/svg" viewBox="0 0 80 80"><defs><style>.cls-1{stroke-linecap:round;}.cls-1,.cls-2{fill:none;stroke:#803b2d;stroke-linejoin:round;stroke-width:1.2px;}.cls-3{opacity:.1;}.cls-3,.cls-4{fill:#fff;stroke-width:0px;}.cls-4{opacity:.02;}</style></defs><g id="_レイヤー_1-2"><rect class="cls-4" width="1" height="1"/><path class="cls-2" d="m50.54,57.53c7.41.5,14.88-.34,22.06-2.52h0c1.61-.49,2.71-1.97,2.71-3.66v-4.67c0-8.16-5.69-14.99-13.32-16.75-1.15-.26-1.98-1.25-1.98-2.43h0c0-.72.31-1.4.86-1.87,2.52-2.15,4.15-5.58,4.15-9.45,0-6.52-4.62-11.81-10.32-11.81s-10.32,5.29-10.32,11.81c0,3.87,1.63,7.3,4.15,9.45.55.47.86,1.15.86,1.87h0c0,1.18-.84,2.16-1.98,2.43-1.55.36-3.02.92-4.39,1.67"/><path class="cls-1" d="m50.58,8.62s3.97,6.46,11.99,5.76"/><path class="cls-1" d="m52.6,10.95s-2.85,3.6-5.95,3.49"/><path class="cls-1" d="m49.39,31.37c2.93,2.93,7.67,2.93,10.6,0"/><path class="cls-2" d="m47.11,72.59c1.09-.33,1.84-1.34,1.84-2.48v-4.46c0-9.03-3.2-12.73-15.32-17.56-1.15-.46-1.91-1.58-1.91-2.82h0c0-.88.39-1.7,1.05-2.28,2.62-2.31,4.32-5.93,4.32-10.01,0-.72-.05-2.25-.15-2.94l-.13-.38s-2.44.59-7.85-.58c-4.75-1.02-5.73-4.1-5.73-4.1-1.51,3.77-6.51,5.05-6.51,5.05-.1.68-.15,2.22-.15,2.94,0,4.08,1.7,7.7,4.32,10.01.66.58,1.05,1.4,1.05,2.28h0c0,1.24-.76,2.36-1.91,2.82-12.12,4.83-15.32,8.53-15.32,17.56v4.47c0,1.14.74,2.14,1.83,2.47h0c13.16,4.01,27.22,4.03,40.39.06l.19-.06Z"/><path class="cls-2" d="m26.64,16.49c7.78,0,12.46,3.57,13.55,12.44.48,3.87,1.28,7.4,1.98,10s-.86,5.17-3.42,5.83c-2,.51-4.47,1.04-7.11,1.37"/><path class="cls-2" d="m26.65,16.49c-7.78,0-12.46,3.57-13.55,12.44-.48,3.87-1.28,7.4-1.98,10s.86,5.17,3.42,5.82c2,.51,4.47,1.04,7.11,1.37"/><path class="cls-1" d="m20.74,50.04c3.36,3.36,8.81,3.36,12.17,0"/><rect class="cls-3" x="79" y="79" width="1" height="1"/></g></svg>