<?xml version="1.0" encoding="UTF-8"?><svg id="_レイヤー_2" xmlns="http://www.w3.org/2000/svg" viewBox="0 0 80 80"><defs><style>.cls-1,.cls-2{stroke-linejoin:round;}.cls-1,.cls-2,.cls-3{stroke-linecap:round;}.cls-1,.cls-2,.cls-3,.cls-4{fill:none;stroke:#803b2d;}.cls-2,.cls-3,.cls-4{stroke-width:1.2px;}.cls-3,.cls-4{stroke-miterlimit:10;}.cls-5{fill:#fff;opacity:.02;stroke-width:0px;}</style></defs><g id="_レイヤー_1-2"><rect class="cls-5" width="1" height="1"/><path class="cls-1" d="m41.42,14.78s3.95,2.14,7.81,1.8"/><path class="cls-4" d="m42.07,73.14c-6.73.1-13.47-.28-20.16-1.15l-1.96-.25c-4.28-.55-7.62-3.99-8.05-8.28l-.7-6.9c-.55-5.45,2.56-10.62,7.64-12.68l12.05-4.88c1.98-.65,3.32-2.5,3.32-4.58h0c0-1.34-.53-2.66-1.55-3.54-2.83-2.45-4.65-6.29-4.65-10.62,0-7.41,5.36-13.42,11.97-13.42s11.97,6.01,11.97,13.42c0,4.32-1.82,8.17-4.65,10.62-1.02.88-1.55,2.19-1.55,3.54h0c0,2.08,1.34,3.93,3.32,4.58l12.06,4.89c3.06,1.24,5.4,3.6,6.67,6.48"/><path class="cls-2" d="m44.94,11.07s-4.7,7.64-14.18,6.82"/><line class="cls-3" x1="32.72" y1="38.37" x2="40" y2="60.99"/><line class="cls-3" x1="47.6" y1="38.26" x2="41.54" y2="56.96"/><line class="cls-3" x1="35.25" y1="45.59" x2="44.75" y2="45.59"/><polyline class="cls-2" points="48.51 66.86 56.22 59.14 60.55 63.48 70.47 53.56"/><polyline class="cls-2" points="65.21 53.03 70.81 53.03 70.81 58.63"/><polyline class="cls-2" points="61.33 53.03 45.23 53.03 45.23 72.96 70.92 72.96 70.92 62.2"/><rect class="cls-5" x="79" y="79" width="1" height="1"/></g></svg>