<?xml version="1.0" encoding="UTF-8"?><svg id="_レイヤー_2" xmlns="http://www.w3.org/2000/svg" viewBox="0 0 80 80"><defs><style>.cls-1{stroke-linecap:round;stroke-linejoin:round;}.cls-1,.cls-2{fill:none;stroke:#803b2d;stroke-width:1.2px;}.cls-2{stroke-miterlimit:10;}.cls-3{fill:#fff;opacity:.02;stroke-width:0px;}</style></defs><g id="_レイヤー_1-2"><rect class="cls-3" width="1" height="1"/><path class="cls-2" d="m68.78,56.56l-.69,6.89c-.43,4.3-3.77,7.73-8.05,8.28l-1.96.25c-12.01,1.56-24.16,1.56-36.17,0l-1.96-.25c-4.28-.55-7.62-3.99-8.05-8.28l-.7-6.9c-.55-5.45,2.56-10.62,7.64-12.68l12.05-4.88c1.98-.65,3.32-2.5,3.32-4.58h0c0-1.34-.53-2.66-1.55-3.54-2.83-2.45-4.65-6.29-4.65-10.62,0-7.41,5.36-13.42,11.97-13.42s11.97,6.01,11.97,13.42c0,4.32-1.82,8.17-4.65,10.62-1.02.88-1.55,2.19-1.55,3.54h0c0,2.08,1.34,3.93,3.32,4.58l12.06,4.89c5.08,2.06,8.2,7.22,7.65,12.68Z"/><path class="cls-1" d="m37.38,11.8s5.5,8.94,16.59,7.97"/><path class="cls-2" d="m23.06,50.54c-.71-2.36-1.1-4.95-1.1-7.67"/><path class="cls-2" d="m58.51,43.05c0,2.72-.39,5.31-1.1,7.67"/><circle class="cls-2" cx="24.25" cy="53.26" r="2.87"/><path class="cls-2" d="m60.61,61.38l-.32,1.67,2.15.41.72-3.77c.79-4.17-1.94-8.19-6.11-8.98h0c-4.17-.79-8.19,1.94-8.98,6.11l-.72,3.77,2.11.4.32-1.67"/><path class="cls-2" d="m31.28,38.41s4.88,7.01,5.78,34.75"/><path class="cls-2" d="m48.72,38.41s-4.88,7.01-5.78,34.75"/><path class="cls-2" d="m47.63,41.21c-2.46.5-5.02.77-7.63.77s-5.17-.26-7.63-.77"/><rect class="cls-3" x="79" y="79" width="1" height="1"/></g></svg>