<?xml version="1.0" encoding="UTF-8"?><svg id="_レイヤー_2" xmlns="http://www.w3.org/2000/svg" viewBox="0 0 127.39 65.23"><defs><style>.cls-1,.cls-2{stroke-width:0px;}.cls-2{fill:#803b2d;}</style></defs><g id="_レイヤー_1-2"><rect class="cls-1" x="48.43" y="28.63" width="5.43" height="13.2"/><rect class="cls-1" x="56.57" y="28.63" width="5.44" height="13.2"/><path class="cls-1" d="m73.87,33.4c.47-2.93.59-4.69.59-4.84h-5.7s0,0,0,0c-.01.85-.34,20.28-15.96,21.61,0,0-1.02.11-3.32.11l-.47,5.41,2.08-.04c9.48-.13,16.52-4.7,20.39-13.74,1.3-3.03,2.01-6.08,2.39-8.5"/><path class="cls-1" d="m121.29,41.52l-.02.15c-.19,1.03-1.11,7.8-12.97,8.48,0,0-.53.08-5.28.09h0s0,0,0,0l-.48,5.45,4.08-.03c14.54,0,18.4-8.42,18.55-8.78l-.09.19c2.32-4.35,2.27-10.22,2.31-10.51h-.02s-25.1.13-25.1.13l-.28,4.91,19.3-.08h0s-.02.02-.02.02"/><polygon class="cls-1" points="104.13 28.56 103.84 33.48 126.92 33.48 127.2 28.56 104.13 28.56"/><polygon class="cls-1" points="72.53 50.52 72.08 55.69 97.97 55.69 97.59 36.7 92.11 36.7 92.4 50.53 78.47 50.53 87.69 28.56 81.76 28.56 72.53 50.52"/><path class="cls-2" d="m25.14,65.23c1.84,0,3.34-1.5,3.34-3.34v-16.25c0-1.84,1.48-3.37,3.33-3.37l7.6.02c1.84,0,3.34-1.5,3.34-3.34v-7.45c0-1.84-1.5-3.34-3.34-3.34h-7.46c-1.85,0-3.34,1.49-3.34,3.34v7.17c0,1.98-1.61,3.58-3.58,3.58h-7.32c-1.98,0-3.58-1.6-3.58-3.58v-7.06c0-1.98,1.6-3.58,3.58-3.58h7.45c1.84,0,3.34-1.5,3.34-3.34v-5.36c0-1.84-1.49-3.34-3.34-3.34h-7.61c-1.84,0-3.34,1.49-3.34,3.34v5.26c-.01,1.84-1.36,3.38-3.21,3.38l-7.66-.02c-1.84,0-3.34,1.49-3.34,3.34v7.67c0,1.84,1.5,3.34,3.34,3.34l7.49-.02c1.84,0,3.34,1.53,3.34,3.37v16.25c.01,1.84,1.51,3.34,3.35,3.34h7.62Z"/><path class="cls-1" d="m5.57,1.5c.25-.62.43-1.22.49-1.41l1.1.13c-.11.35-.37.98-.52,1.28h4.9v10.11H1.81V1.5h3.76Zm4.91.96H2.85v2h7.63v-2Zm0,2.93H2.85v2.12h7.63v-2.12Zm0,3.03H2.85v2.23h7.63v-2.23Z"/><path class="cls-1" d="m15.33,4.17c.5.23,1.33.67,1.81,1.04.19-.24.34-.45.54-.82-.06-.04-.84-.57-1.7-.94l.45-.71c.65.29,1.02.5,1.62.87.24-.55.38-1.06.49-1.52h-2.33c-.79,1.45-1.49,2.11-1.99,2.57l-.6-.87c1.1-.98,1.81-1.99,2.35-3.68l1.01.21c-.14.39-.21.59-.34.88h3.02c-.06.43-.14.86-.3,1.49h1.86V.16h1.02v2.53h3.29v.92h-3.05c.6,2.01,1.67,3.05,3.11,4.08l-.69.94c-.63-.47-2.32-1.79-3.07-4.32-.44,1.46-1.25,3.13-3.7,4.37l-.67-.89c2.01-.87,3.26-2.3,3.61-4.18h-2.01c-1.03,2.87-3.35,4.28-4.66,4.93l-.6-.89c.73-.31,1.75-.82,2.78-1.83-.13-.1-.88-.64-1.69-.98l.43-.68Zm-1.64,7c.72-.67,1.26-1.37,1.6-2.47l.94.34c-.62,1.76-1.37,2.48-1.74,2.82l-.81-.69Zm3.79.52c.05-.29.11-.67.11-1.54,0-.64-.03-.89-.06-1.18l.96-.04c.1.89.14,1.74.13,2.73l-1.13.03Zm3.44,0c-.08-.68-.19-1.37-.74-2.74l.96-.16c.11.25.64,1.45.83,2.78l-1.05.13Zm3.75.14c-.5-1.03-1.22-2.14-1.9-2.95l.86-.48c.83.86,1.57,2.04,1.98,2.78l-.93.64Zm-.18-9.43c-.45-.6-.81-.94-1.67-1.61l.78-.58c.53.35,1.27,1.05,1.67,1.55l-.78.64Z"/><path class="cls-1" d="m36.48,4.77c-1.02.11-7.82.88-7.82,3.68,0,1.46,1.54,1.6,4.24,1.6,2.08,0,3.25-.11,3.97-.19l.03,1.18c-.82.05-1.93.12-3.74.12-2.18,0-5.67,0-5.67-2.68,0-2.15,2.59-3.24,3.48-3.61-.42-.82-.44-1.55-.48-4.23h1.23c-.01.34-.03.69-.03,1.31,0,1.33.06,2,.33,2.54,1.36-.42,2.39-.62,4.34-.93l.11,1.21Z"/><path class="cls-1" d="m40.8,11.82h-.97v-6.47c-.33.59-.53.81-.79,1.08l-.49-1.03c1.07-1.3,1.74-3.48,1.99-5.26l1.01.16c-.13.73-.3,1.67-.74,2.88v8.64Zm9.72-1.31l-.16.98h-3.36c-2.42,0-3.66-.97-4.02-1.31-.5.82-.96,1.23-1.32,1.57l-.57-.93c.35-.28.78-.6,1.27-1.41-.73-1.12-.94-2.59-1.02-3.06l.86-.13c.08.52.19,1.32.6,2.19.35-1.06.44-2.04.47-2.97h-1.75v-.92c.5-.71,1.32-2.25,1.62-2.98h-1.5v-.91h2.52v.94c-.43.95-1.03,1.99-1.59,2.96h1.61c-.05,2.73-.63,4.41-.77,4.77.08.09,1.2,1.2,3.65,1.2h3.45ZM47.37.16v.82h2.43v1.81h.6v.82h-.6v1.81h-2.43v.91h2.59v.82h-2.59v.94h3v.84h-3v1.12h-.91v-1.12h-2.15v-.84h2.15v-.94h-1.81v-.82h1.81v-.91h-1.64v-.81h1.64v-1.01h-2.3v-.82h2.3v-.98h-1.64v-.83h1.64V.16h.91Zm1.5,1.65h-1.5v.98h1.5v-.98Zm0,1.8h-1.5v1.01h1.5v-1.01Z"/><path class="cls-1" d="m63.22,7.87c-.57.6-.98.98-1.83,1.6,1.06.61,1.91.91,2.37,1.07l-.59.97c-1.35-.5-3-1.44-4.21-2.93v2.34c0,.55-.28.93-.92.93h-1.52l-.2-1.03h1.35c.29.01.31-.11.31-.28v-3.37h-3.54v-.81h3.54v-.93h-4.09v.98c0,.93-.11,3.36-1.22,5.45l-.86-.89c.21-.36.59-1.06.82-2.24.14-.73.24-1.15.24-2.4V1.08h4.54V.16h1.05v.92h5.11v.93h-9.68v2.58h4.09v-.86h-3.54v-.82h3.54v-.59h.98v.59h3.69v1.68h.99v.83h-.99v1.74h-3.69v.11c.31.44.77,1.03,1.61,1.66.15-.11,1.16-.89,1.8-1.69l.84.62Zm-5.67,1.9c-.55.3-.86.43-3.54,1.55l-.39-.91c1.45-.45,3.34-1.32,3.76-1.52l.16.88Zm-2.53-2.51c.81.38,1.22.6,1.86,1.11l-.67.77c-.55-.52-.94-.77-1.76-1.14l.57-.73Zm3.94-3.53v.86h2.69v-.86h-2.69Zm0,1.69v.93h2.69v-.93h-2.69Z"/><path class="cls-1" d="m75.41,1.84v1.01h-5.55c-.29.77-.47,1.18-.83,1.81.88-.53,1.39-.74,2.01-.74.86,0,1.66.28,1.91,1.47.29-.11,2.01-.81,3.15-1.2l.3,1.09c-1.02.29-1.91.57-3.3,1.1.04.44.05.98.05,1.44,0,.18,0,.55-.04.96h-1.1c.03-.29.06-.76.06-1.21,0-.21,0-.43-.03-.76-.97.45-2.49,1.26-2.49,2.29,0,1.11,1.4,1.11,2.78,1.11,1.01,0,2.19-.05,3.32-.18l.04,1.08c-.72.05-1.81.13-3.01.13-1.42,0-4.27,0-4.27-2.03,0-1.71,2.25-2.85,3.5-3.4-.14-.74-.49-.99-1.07-.99-.69,0-1.61.39-2.49,1.28-.58.79-1.41,1.9-1.81,2.32l-.78-.84c1.11-1.04,2.11-2.38,2.92-4.73h-2.59v-1.01h2.9c.09-.33.18-.69.26-1.41l1.21.05c-.08.44-.14.73-.32,1.36h5.25Z"/><path class="cls-1" d="m81.78,3.49h1.67v.94h-1.67v.16c.33.59.92,1.42,1.75,2.28l-.59.89c-.3-.39-.74-.97-1.16-1.82v5.89h-.99v-5.78c-.52,1.27-1.1,2.17-2,3.2l-.44-1.1c1.08-1.02,2.06-2.95,2.35-3.73h-2.13v-.94h2.22v-1.86c-1.15.13-1.66.14-2.06.15l-.21-.93c1.18-.03,3.17-.2,4.49-.67l.47.93c-.4.1-.89.24-1.69.36v2.01Zm8.41,3.29l.13.99-1.33.29v3.78h-1.03v-3.56l-4.41.92-.13-.99,4.53-.96V.18h1.03v6.85l1.21-.25Zm-4.09-.36c-.63-.71-1.49-1.35-2.15-1.76l.62-.77c.74.44,1.55,1.02,2.24,1.74l-.71.79Zm.58-3.07c-.94-1.02-1.76-1.57-2.14-1.83l.58-.74c.99.61,1.5,1.01,2.25,1.78l-.69.79Z"/><path class="cls-1" d="m101.37,5.11c-1.01.89-2.15,1.54-3.2,2.05v.26h5.24v.97h-5.24v2.48c0,.83-.65.97-1.03.97h-2.29l-.2-1.08h2.05c.39.01.42-.09.42-.38v-1.99h-5.36v-.97h5.36v-1.04h.54c.29-.11,1.3-.53,2.04-1.2h-5.92v-.93h7.59v.86Zm-1.22-2.92c.39-.68.84-1.81.94-2.08l1.1.37c-.25.59-.57,1.18-.89,1.71h1.83v2.78h-1.03v-1.85h-9v1.85h-1.03v-2.78h1.83c-.25-.73-.67-1.36-.87-1.66l.93-.36c.5.67.79,1.31.97,1.79l-.63.24h5.87Zm-2.76-.01c-.23-.55-.58-1.22-.96-1.79l.97-.39c.52.76.87,1.61.96,1.84l-.97.34Z"/><path class="cls-1" d="m115.71,1.98v1.04h-3.3v2.53c.06.24.13.53.16.83.05.31.08.64.08.97,0,3.32-2.95,3.93-5.14,4.02l-.35-1.06c3.36.04,4.29-1.12,4.46-2.62-.13.26-.54,1.21-1.99,1.21-1.56,0-2.34-1.25-2.34-2.47,0-1.47,1.04-2.56,2.61-2.56.84,0,1.15.28,1.41.5v-1.36h-6.22v-1.04h6.19l-.03-1.41h1.16v1.41h3.3Zm-4.38,3.99c-.1-.4-.3-1.15-1.41-1.15-.69,0-1.57.4-1.57,1.56,0,.53.26,1.6,1.44,1.6.89,0,1.55-.63,1.55-1.46v-.55Z"/><path class="cls-1" d="m124.8,1.9c-.28.2-.67.52-.98.77-1.61,1.3-1.79,1.44-2.62,2.09.49-.16,1.25-.43,2.25-.43,1.85,0,3.34,1.02,3.34,3.16,0,2.47-2.11,3.74-4.47,3.74-2,0-3.25-.89-3.25-2.09,0-1.04.96-1.77,2.13-1.77.44,0,2.39.14,3.01,2.47.35-.18,1.46-.73,1.46-2.32,0-.67-.2-2.24-2.62-2.24-2.23,0-3.87,1.25-5.59,2.88l-.65-.94c.97-.76,3.85-3.07,6.22-5.2-2.14.15-2.88.18-4.94.21v-1.08c2.67,0,3.7-.01,6.71-.19v.94Zm-3.64,6.38c-.77,0-1.1.49-1.1.83,0,.62.81,1.22,2.22,1.22.5,0,.78-.06.98-.11-.28-1.2-1.01-1.94-2.1-1.94Z"/></g></svg>