<?xml version="1.0" encoding="UTF-8"?><svg id="_レイヤー_2" xmlns="http://www.w3.org/2000/svg" viewBox="0 0 218.5 41.76"><defs><style>.cls-1{fill:#fff;stroke-width:0px;}</style></defs><g id="_レイヤー_1-2"><path class="cls-1" d="m0,4.92v-2.75C0,.21,1.74.05,2.69,0v.96c-1.12.11-1.29.53-1.33,1.19h1.33v2.78H0Zm3.74,0v-2.75C3.74.21,5.47.05,6.43,0v.96c-1.12.11-1.29.53-1.31,1.19h1.31v2.78h-2.69Z"/><path class="cls-1" d="m19.5,5.99c-.11-.42-.26-.81-.45-1.16-.19-.35-.44-.66-.73-.92-.3-.26-.65-.46-1.05-.6-.4-.14-.87-.21-1.4-.21-.77,0-1.44.16-2.01.47-.56.31-1.02.73-1.38,1.25-.35.52-.61,1.12-.78,1.78-.17.67-.25,1.34-.25,2.04s.08,1.37.25,2.04c.17.67.43,1.26.78,1.78.35.52.81.94,1.38,1.25.56.31,1.23.47,2.01.47.57,0,1.07-.1,1.51-.3.43-.2.81-.47,1.12-.81.31-.35.56-.75.73-1.21.18-.46.29-.96.35-1.49h2.49c-.05.87-.24,1.66-.56,2.38-.32.72-.75,1.34-1.29,1.86-.54.52-1.18.93-1.92,1.21s-1.54.43-2.42.43c-1.09,0-2.06-.2-2.92-.6-.86-.4-1.59-.95-2.19-1.64-.6-.69-1.06-1.5-1.38-2.42-.32-.92-.48-1.91-.48-2.95s.16-2.01.48-2.93c.32-.92.78-1.73,1.38-2.42.6-.69,1.33-1.24,2.19-1.65.86-.41,1.84-.61,2.92-.61.81,0,1.58.11,2.3.34.72.22,1.35.55,1.9.98.55.43,1,.95,1.33,1.56s.55,1.31.63,2.1h-2.55Z"/><path class="cls-1" d="m24.94,1.36h2.32v5.4h.04c.29-.48.71-.87,1.27-1.19.56-.32,1.19-.48,1.88-.48,1.15,0,2.06.3,2.73.9s1,1.49,1,2.69v7.23h-2.32v-6.62c-.03-.83-.2-1.43-.53-1.8-.33-.37-.83-.56-1.53-.56-.39,0-.75.07-1.06.21s-.58.34-.79.59c-.22.25-.39.55-.51.89-.12.34-.18.7-.18,1.08v6.21h-2.32V1.36Z"/><path class="cls-1" d="m42.34,16.19c-.84,0-1.59-.14-2.25-.42-.66-.28-1.22-.66-1.67-1.15-.46-.49-.8-1.07-1.04-1.75s-.36-1.43-.36-2.24.12-1.54.36-2.22.58-1.26,1.04-1.75c.46-.49,1.01-.87,1.67-1.15.66-.28,1.41-.42,2.25-.42s1.59.14,2.25.42,1.22.66,1.67,1.15c.45.49.8,1.07,1.04,1.75.24.68.36,1.42.36,2.22s-.12,1.56-.36,2.24c-.24.68-.58,1.26-1.04,1.75-.46.49-1.01.87-1.67,1.15s-1.41.42-2.25.42Zm0-1.83c.52,0,.96-.11,1.34-.33.38-.22.69-.5.94-.86s.42-.75.54-1.19c.12-.44.17-.89.17-1.35s-.06-.9-.17-1.34c-.12-.45-.3-.85-.54-1.19-.24-.35-.56-.63-.94-.85s-.83-.33-1.34-.33-.96.11-1.34.33c-.38.22-.69.5-.94.85-.24.35-.42.74-.54,1.19-.12.45-.17.9-.17,1.34s.06.91.17,1.35c.12.44.3.84.54,1.19.24.35.56.64.94.86.38.22.83.33,1.34.33Z"/><path class="cls-1" d="m50.24,9.27h5.93v2.2h-5.93v-2.2Z"/><path class="cls-1" d="m58.17,1.36h2.59l2.63,11.12h.04l2.93-11.12h2.61l2.85,11.12h.04l2.71-11.12h2.59l-4.01,14.55h-2.59l-2.91-11.12h-.04l-2.97,11.12h-2.63l-3.83-14.55Z"/><path class="cls-1" d="m83.15,1.36h2.71l5.6,14.55h-2.73l-1.37-3.85h-5.81l-1.36,3.85h-2.63l5.58-14.55Zm-.9,8.76h4.44l-2.18-6.25h-.06l-2.2,6.25Z"/><path class="cls-1" d="m95.75,0v2.75c0,1.97-1.74,2.13-2.69,2.18v-.96c1.12-.11,1.29-.51,1.31-1.19h-1.31V0h2.69Z"/><path class="cls-1" d="m99.48,0v2.75c0,1.97-1.74,2.13-2.69,2.18v-.96c1.12-.11,1.29-.51,1.33-1.19h-1.33V0h2.69Z"/><path class="cls-1" d="m111.55,4.73c-.66.7-2.3,2.42-2.3,5.56s1.64,4.86,2.3,5.56l-1,.91c-2.23-2.25-2.66-4.78-2.66-6.47s.43-4.22,2.66-6.47l1,.91Z"/><rect class="cls-1" x="113.47" y="6.21" width="4.75" height="1.19"/><rect class="cls-1" x="113.94" y="4.41" width="3.84" height="1.27"/><rect class="cls-1" x="113.94" y="8.09" width="3.84" height="1.15"/><rect class="cls-1" x="113.94" y="9.9" width="3.84" height="1.19"/><path class="cls-1" d="m118.6,4.42v5.06c0,1.33,0,3.44-.68,5.59v-3.27h-4.18v4.68h1.47v-.72h1.31v.54h1.39v-.22c.72.22.93.34,1.12.45.32-1.01.95-2.87.95-7.03v-3.79h4.17v8.5c0,.61-.07.78-.72.78-.32,0-.53-.01-.74-.05.27.51.41.91.5,1.53,1.99.04,2.41-.5,2.41-1.76V4.42h-7.01Zm-2.07,10.05h-1.31v-1.47h1.31v1.47Z"/><path class="cls-1" d="m123.75,6.84v1.15h-1.08v.78h1.16v1.19h-3.52v-1.19h1.06v-.78h-1v-1.15h1v-.91l1.3.08c.09,0,.26.04.26.18,0,.09-.16.18-.26.22v.43h1.08Z"/><path class="cls-1" d="m120.34,10.66v4.37h1.24v-.76h2.02v-3.61h-3.26Zm2.08,2.34h-.84v-1.12h.84v1.12Z"/><path class="cls-1" d="m131.95,16.42h-1.62v-4.19c-.78,1.45-1.33,2.02-1.57,2.29-.47-.49-.77-.73-1.47-1,1.24-1.11,2.19-2.52,2.79-4.09h-2.23v-1.58h2.49v-1.29c-.27.05-1.45.26-1.69.3-.07-.16-.38-.91-.81-1.47.73-.05,3.04-.22,5.01-1.33l1.12,1.24c.05.07.09.12.09.22s-.05.15-.15.15c-.05,0-.08,0-.38-.11-.74.31-1.06.42-1.57.58v1.7h2v1.58h-1.8c.12.23.85,1.47,2.15,2.61-.61.41-.72.51-1.18,1.23-.68-.68-1.12-1.41-1.18-1.47v4.63Z"/><path class="cls-1" d="m134.34,5.33v10.81h1.68v-1.11h2.04v.92h1.68V5.33h-5.4Zm3.72,8.18h-2.04v-6.63h2.04v6.63Z"/><path class="cls-1" d="m142.09,15.85c.66-.7,2.3-2.42,2.3-5.56s-1.64-4.86-2.3-5.56l1-.91c2.23,2.25,2.66,4.78,2.66,6.47s-.43,4.22-2.66,6.47l-1-.91Z"/><path class="cls-1" d="m157.98,1.06c-5.05,0-8.47,4.34-8.47,8.11,0,3.17,2.39,5.4,3.76,5.4,1.82,0,4.38-4.75,4.98-11.36,3.19.16,4.52,2.57,4.52,4.62,0,1.86-1.08,4.98-5.26,5.78.69.76,1.03,1.22,1.56,2.11,1.31-.51,2.78-1.15,3.99-2.52.9-1.01,2.09-2.73,2.09-5.37,0-4.23-3.38-6.79-7.16-6.79Zm-3.58,8.73c-.28.71-.78,1.91-1.29,1.91-.55,0-1.35-1.19-1.35-2.69,0-1.88,1.56-4.62,3.97-5.37-.04.81-.07,3.12-1.33,6.15Z"/><path class="cls-1" d="m181.45,5.97c-1.4.14-2.69.3-6.34,1.84-.87.37-4.25,1.81-4.25,3.95,0,1.29,1.4,1.79,4.61,1.79,2.71,0,4.43-.46,5.95-.94-.18.66-.27,1.17-.23,2.68-2.2.43-4.73.53-5.9.53-3.12,0-4.34-.5-5.16-.92-1.1-.58-1.88-1.65-1.88-2.98,0-2.13,1.61-3.65,3.84-4.94-.94-.97-1.08-2.14-1.36-4.43-.05-.48-.12-.96-.41-1.74l2.99-.64c-.07.85-.11,1.26-.11,1.81,0,1.84.39,3.24.85,3.99,2.44-1.13,3.3-1.45,6.45-2.64l.94,2.64Z"/><path class="cls-1" d="m190.26,3.54l1.06.85c-.12.21-.39.67-.5,1.19,2.3-2.37,4.02-2.44,4.27-2.44,1.29,0,2.25,1.06,2.25,2.52,0,.67-.05,1.08-.41,3.65-.11.78-.18,1.81-.18,2.39,0,.16,0,.97.64.97.27,0,1.1-.12,2.32-1.63.32,1.08.35,1.2.85,2.32-1.28,1.35-2.71,1.9-3.47,1.9-1.12,0-2.68-.73-2.68-3.24,0-.89.5-4.78.5-5.58,0-.23-.02-.81-.71-.81-1.17,0-2.89,1.9-4.11,3.3.02,3.47.02,4.48.28,7.17l-2.62.12c.07-.74.09-1.12.12-4.43-.3.44-1.58,2.43-1.88,2.82l-1.82-1.86c.62-.71,2.16-2.59,3.77-4.98l.02-.81c-.25.07-1.45.48-3.01.69l-.51-2.52c.51-.02,1.74-.05,3.58-.58.02-.8.05-3.47,0-4.27l2.25.19c.32.04.5.11.5.27,0,.21-.19.25-.39.3-.07.74-.12,1.65-.18,2.55l.05-.04Z"/><path class="cls-1" d="m210.83.78c.25.05.34.12.34.25,0,.04,0,.23-.35.27-.09.32-.43,1.74-.5,2.02,1.75-.28,2.53-.6,3.26-.9l.28,2.36c-.94.28-1.88.53-4.16.87-1.7,5.79-4.02,9.48-4.71,10.54-.73-.46-1.03-.58-2.27-1.15.96-1.17,3.21-4.57,4.5-9.03-1.08.11-1.84.11-3.51.14l-.19-2.48c.44.04.99.07,1.74.07.34,0,1.33,0,2.53-.11.28-1.59.39-2.55.46-3.44l2.59.6Z"/><path class="cls-1" d="m212.26,11.37c-.32.37-.6.81-.6,1.31,0,.94,2.16.94,2.98.94,1.33,0,2.57-.19,3.84-.58-.05.3-.09.69-.09,1.2,0,.57.05.94.11,1.24-1.59.27-2.87.32-3.7.32-1.67,0-5.28-.14-5.28-2.78,0-.73.21-1.33.78-2.37l1.97.73Z"/><path class="cls-1" d="m211.5,6.61c1.75-.32,3.53-.32,3.97-.32,1.52,0,2.25.12,2.62.19-.09.71-.14,1.29-.16,2.34-.57-.12-1.26-.28-2.6-.28-1.42,0-3.22.23-3.83.3v-2.23Z"/><path class="cls-1" d="m18.37,41.35h-2.14v-5.95c-2.11,3.1-4.61,4.77-5.69,5.3-.6-.87-.89-1.19-1.63-1.68,2.78-1.33,4.84-3.1,6.63-5.63h-6.36v-1.97h7.05v-2.09h-6.11v-2h6.11v-2.2l2.09.04c.23,0,.41.09.41.23s-.23.3-.35.37v1.56h6.09v2h-6.09v2.09h7.02v1.97h-6.29c.87,1.22,2.87,3.65,6.7,5.72-.58.35-1.26,1.06-1.63,1.61-2.82-1.75-4.5-3.67-5.79-5.49v6.13Z"/><path class="cls-1" d="m38.26,34.67h5.74v-1.93h-3.76c.3-.51.97-1.75,1.26-2.59.23-.05.39-.07.39-.27,0-.12-.11-.19-.19-.23l-1.35-.58h2.85v-1.93h-6.24v-1.2c.11-.05.18-.11.27-.19.07-.05.11-.11.11-.16,0-.18-.16-.21-.3-.23l-2.2-.14v1.93h-6.25v1.93h2.82l-1.42.76c.74.99,1.49,2.71,1.58,2.91h-3.79v1.93h5.81c-2.59,3.17-5.19,4.39-6.29,4.91.74.32,1.47.99,1.88,1.51,2.21-1.22,4.07-2.99,5.67-4.98v5.24h2.13v-5.35c1.61,2.29,3.72,3.99,5.7,4.92.6-.81.81-1.13,1.65-1.7-1.72-.73-4.57-2.55-6.06-4.55Zm-3.42-1.93h-2.29c.12-.07.53-.32,1.19-.6-.46-1.28-1.29-2.59-1.67-3.06h2.76v3.67Zm2.13-3.67h2.62c-.18.53-.76,1.98-1.42,3.08.41.18.85.44,1.12.58h-2.32v-3.67Z"/><path class="cls-1" d="m54.77,25.43c.12.04.35.07.35.28,0,.16-.19.27-.43.28-.19.43-.32.67-.53,1.1,2.52-.35,3.42-.67,4-.89l.02,2.27c-1.68.3-3.45.6-5.17.76-.21.39-.62,1.05-.92,1.58.74-.41,1.52-.41,1.68-.41.28,0,1.9.04,2.68,1.63,1.26-.57,3.01-1.36,3.76-1.75l.89,2.41c-1.56.48-2.91.92-4.18,1.45.05.69.07,1.31.07,1.77,0,.78-.04,1.31-.05,1.75-.12,0-1.56-.05-2.37,0,.09-.9.09-1.06.09-2.44-1.93,1.05-2.66,1.82-2.66,2.59s.9,1.08,2.99,1.08c.64,0,2.71,0,5.56-.8-.23.92-.28,1.75-.28,2.43-2.2.48-4.39.48-4.92.48-.99,0-5.63,0-5.63-3.03,0-2.46,3.65-4.38,4.73-4.94-.16-.43-.51-.96-1.45-.96-1.38,0-2.69,1.05-4.38,3.81l-2.11-1.24c.76-.78,2.57-3.01,3.9-5.21-.87.04-1.4.05-2.83.04v-2.21c.41.04,1.47.14,2.85.14.64,0,.9-.02,1.08-.04.11-.21.69-1.38,1.01-2.41l2.27.48Z"/><path class="cls-1" d="m79.86,34.92h-7.3c.04-.23.07-.48.12-.9h4.66v-1.67h-4.57c.02-.58.02-.66.02-.94h4.98v-.67h1.79v-4.04h-6.7v-.9c.32-.16.41-.19.41-.35,0-.21-.3-.21-.39-.21l-2.36-.09v1.56h-6.66v4.13h1.95v.58h4.78c0,.5,0,.58-.02.94h-4.43v1.67h4.34c-.04.3-.05.55-.14.9h-6.59v1.72h5.88c-1.28,2-4.06,2.62-5.79,2.85.41.44.94,1.33,1.17,1.91,2.76-.58,5.37-1.97,6.64-4.11,2.37,2.87,5.7,3.83,6.94,4.07.35-.85.62-1.31,1.17-1.95-1.97-.28-4.25-1.03-6.04-2.78h6.13v-1.72Zm-7.07-6.04c.12-.04.46-.16.46-.28,0-.07-.05-.12-.12-.18h4.34v1.33h-4.68v-.87Zm-2.2.87h-4.62v-1.33h4.62v1.33Z"/><path class="cls-1" d="m86.38,31.2h1.68v1.79h-1.68v3.21c.23-.05,1.88-.53,2.25-.64-.14.76-.18,1.1-.19,1.81-1.2.5-4.48,1.45-5.35,1.63-.02.32-.09.5-.32.5-.14,0-.21-.12-.27-.27l-.64-2.05c.43-.05.83-.09,2.37-.44v-3.74h-1.82v-1.79h1.82v-3.21h-2v-1.86h6.22v1.86h-2.07v3.21Z"/><path class="cls-1" d="m97.26,37.22c-.39,1.88-.66,1.88-1.15,1.88-.83,0-.87-.19-.87-.66v-3.15h1.98v-9.71h-7.95v9.71h1.36c-.53,3.31-3.14,4.02-4.85,4.34.96.89,1.15,1.42,1.26,1.84,3.81-.94,4.92-3.84,5.42-5.1.39-.02.53-.05.53-.27,0-.07-.07-.19-.3-.27l-1.82-.55h2.39v3.72c0,2.02,1.08,2.02,2.94,2.02,1.61,0,2.02,0,2.85-2.8-.74-.23-1.17-.46-1.79-1.01Zm-2.13-3.68h-3.76v-1.12h3.76v1.12Zm0-2.53h-3.76v-1.08h3.76v1.08Zm0-2.6h-3.76v-1.08h3.76v1.08Z"/><path class="cls-1" d="m116.76,29.5c-.07-.46-.07-1.12-.07-1.56,0-.51.02-.57.05-.87-.21.02-.8.05-5.99.27.02-.8.04-1.1.09-1.42.18-.09.28-.14.28-.3,0-.12-.12-.16-.41-.19l-2.57-.32c.07.44.16.92.25,2.34-6.11.35-6.78.39-7.37.39l.18,2.53c1.22-.23,3.28-.6,7.26-.85,0,.39,0,.64-.02,1.38-.18-.05-.37-.11-.74-.11-1.88,0-3.1,1.43-3.1,3.61,0,1.19.39,3.37,2.55,3.37.64,0,1.22-.19,1.7-.62-.21.55-.76,1.91-3.54,3.03,1.13.67,1.61,1.06,2.14,1.58,3.28-1.79,4.25-4.92,4.25-6.8,0-.21,0-2-.9-3.22-.05-.83-.02-2-.02-2.3.8-.04,2.6-.07,5.97.07Zm-9.07,6.47c-.3,0-1.1-.18-1.1-1.65,0-1.08.57-1.61,1.17-1.61.99,0,1.1,1.01,1.1,1.38,0,1.03-.46,1.88-1.17,1.88Z"/><path class="cls-1" d="m129.11,31.01c-1.12,0-1.86.25-2.32.39.67-.73,3.61-3.49,4.69-4.3l-1.22-1.63c-2.71,1.03-7.6,1.13-8.93,1.08l.39,2.37c1.13-.09,3.83-.34,5.37-.67-1.01,1.33-5.83,6.09-7.72,7.41l1.81,1.77c2.5-2.59,4.29-4.45,7.39-4.45,2.59,0,3.19,1.79,3.19,2.82,0,.35,0,1.74-1.58,2.46-.41-2.09-2.43-2.8-3.77-2.8-1.84,0-3.22,1.13-3.22,2.66,0,1.68,1.58,2.98,4.3,2.98,2.89,0,6.64-1.63,6.64-5.49,0-3.05-2.39-4.59-5.01-4.59Zm-1.97,8.27c-.87,0-1.84-.39-1.84-1.1,0-.41.32-.8.97-.8,1.03,0,1.77.66,1.93,1.75-.21.05-.6.14-1.06.14Z"/><path class="cls-1" d="m146.3,25.02c.18.02.44.09.44.25,0,.07-.09.23-.18.32,1.38,1.61,3.86,3.51,7.35,4.73-.76.71-1.17,1.45-1.35,1.81-1.7-.67-5.05-2.41-7.49-5.19-.73.89-3.08,3.63-7.03,5.39-.46-.85-.92-1.29-1.45-1.72,2.85-1.12,5.7-3.1,7.35-5.7l2.36.12Z"/><path class="cls-1" d="m153.07,38.94v1.93h-15.73v-1.93h2.64v-6.16l2.2.12c.16.02.39.09.39.27,0,.21-.23.28-.39.34v5.44h2.2v-9.74l2.18.11c.18,0,.35.09.35.23s-.19.27-.37.35v3.4h4.18v2.11h-4.18v3.54h6.54Z"/><path class="cls-1" d="m171.84,34.97h-7v-.73h4.84v-1.52h-4.84v-.71h5.93v-1.63h-3.44c.09-.18.19-.39.41-.89.21-.02.69-.05.69-.25,0-.04-.02-.07-.05-.12h3.44v-1.67h-2.83c.11-.16.62-.96.74-1.13.27.02.53.04.53-.19,0-.09-.07-.18-.16-.21l-2.07-.76c-.21.53-.39.87-1.06,1.91.23.05.62.16,1.13.39h-1.74v-1.67c.12-.05.39-.16.39-.34,0-.21-.3-.21-.39-.21l-1.98-.09v2.3h-1.28v-1.7c.23-.07.37-.12.37-.3s-.19-.19-.37-.21l-1.97-.11v2.32h-1.56c.39-.21.58-.28.87-.39-.32-.64-.83-1.45-1.2-2l-1.72,1.03c.39.55.73,1.06.87,1.36h-2.6v1.67h5.03l-.89.21c.18.34.41.83.5,1.05h-3.76v1.63h6.13v.71h-4.96v1.52h4.96v.73h-7.02v1.67h5.65c-1.26,1.08-3.22,2.39-5.51,3.17.41.25.83.51,1.58,1.49.96-.35,3.24-1.58,5.3-3.37v3.45h2.04v-3.54c2.09,2,4.59,3.14,5.44,3.42.25-.48.5-.81,1.47-1.58-1.05-.35-3.31-1.12-5.54-3.05h5.63v-1.67Zm-9.21-4.59c-.34-.74-.48-1.05-.6-1.26h3.61c-.27.64-.48,1.05-.58,1.26h-2.43Z"/><path class="cls-1" d="m173.72,34.51c.46-.34,1.95-1.42,3.93-4.09,1.49-2.04,1.91-2.6,2.96-2.6,1.15,0,1.54.48,3.84,3.3,1.2,1.47,3.74,4.27,6.4,6.09-.76.8-1.52,2-1.7,2.27-2.25-1.9-4.27-4.04-6.13-6.32-.67-.81-1.77-2.16-2.07-2.37-.12-.11-.23-.16-.39-.16-.23,0-.39.07-.92.81-2.21,3.12-2.53,3.56-3.92,5.03l-2-1.95Z"/></g></svg>